<!-- Generator: Adobe Illustrator 23.0.3, SVG Export Plug-In  -->
<svg version="1.1" xmlns="http://www.w3.org/2000/svg" xmlns:xlink="http://www.w3.org/1999/xlink" x="0px" y="0px"
	 width="225.52px" height="242.31px" viewBox="0 0 225.52 242.31" style="enable-background:new 0 0 225.52 242.31;"
	 xml:space="preserve">
<defs>
</defs>
<g>
	<linearGradient id="SVGID_1_" gradientUnits="userSpaceOnUse" x1="198.0637" y1="12.3236" x2="65.2977" y2="257.43">
		<stop  offset="0" style="stop-color:#0DCA7B"/>
		<stop  offset="1" style="stop-color:#C12474"/>
	</linearGradient>
	<path style="fill:url(#SVGID_1_);" d="M161.38,23.78c8.05,2.71,15.39,6.98,21.66,12.45c0.96,0.84,1.9,1.72,2.81,2.61
		c0.95,0.94,1.89,1.9,2.78,2.89c8.12,9.02,13.72,20.35,15.69,32.88l-23.98,0.5c0.34,3.55,0.52,7.15,0.52,10.79
		c0,3.41-0.64,6.66-1.77,9.67l36.43-0.76c1.64-0.03,3.16-0.49,4.52-1.21c3.25-1.71,5.48-5.09,5.48-9.01
		c0-23.32-9.49-44.47-24.8-59.79C185.4,9.49,164.25,0,140.93,0c-1.42,0-2.84,0.04-4.24,0.11c5.97,3.93,11.54,8.55,16.58,13.85
		C156.2,17.05,158.89,20.34,161.38,23.78z"/>
	<linearGradient id="SVGID_2_" gradientUnits="userSpaceOnUse" x1="147.4322" y1="-15.1017" x2="14.6663" y2="230.0046">
		<stop  offset="0" style="stop-color:#0DCA7B"/>
		<stop  offset="1" style="stop-color:#C12474"/>
	</linearGradient>
	<path style="fill:url(#SVGID_2_);" d="M69.76,42.44C63.03,54.78,59.2,69.14,59.2,84.59v107.31c5.39,3.85,11.44,6.57,17.65,8.45
		c1.71-1.83,2.78-4.27,2.78-6.97V84.59c0-16.62,5.75-31.57,15.33-42.85c-3.53-0.98-7.28-1.51-11.21-1.51
		C78.86,40.24,74.17,41.01,69.76,42.44z"/>
	<linearGradient id="SVGID_3_" gradientUnits="userSpaceOnUse" x1="173.5481" y1="-0.9556" x2="40.7821" y2="244.1507">
		<stop  offset="0" style="stop-color:#0DCA7B"/>
		<stop  offset="1" style="stop-color:#C12474"/>
	</linearGradient>
	<path style="fill:url(#SVGID_3_);" d="M105.6,242.31c24.95,0,46.75-5.38,65-16.03c3.28-1.91,6.43-4.01,9.47-6.26
		c0.87-0.64,1.75-1.28,2.6-1.95c1-0.79,1.98-1.6,2.94-2.42c1.53-1.29,3.03-2.6,4.48-3.96c1.75-1.64,3.41-3.35,5.04-5.08
		c1.61-1.72,3.18-3.48,4.67-5.3c2-2.45,3.9-4.99,5.68-7.62c1.78-2.62,3.45-5.33,5-8.13c5.44-9.78,9.48-20.58,12.1-32.36
		c0.67-3.02-0.06-6.19-2-8.61c-1.94-2.42-4.87-3.82-7.97-3.82h-61.59c-5.64,0-10.21,4.57-10.21,10.21v39.54
		c0,0.64,0.08,1.26,0.19,1.87c0.86,4.62,4.82,8.13,9.65,8.31c0.13,0,0.25,0.04,0.38,0.04c5.64,0,10.21-4.57,10.21-10.21V161.2h37.89
		c0,0,0,0,0,0h0c-2.91,8.32-6.76,15.83-11.59,22.61c-4.18,5.86-9.13,11.14-14.8,15.95c-0.89,0.75-1.75,1.53-2.68,2.26
		c-16.75,13.18-38.43,19.86-64.44,19.86c-7.87,0-16.84-0.65-25.95-2.59c-1.36-0.29-2.72-0.62-4.08-0.97
		c-1.84-0.47-3.68-0.98-5.52-1.58c-1.53-0.5-3.06-1.04-4.58-1.62c-4.56-1.76-9.03-3.94-13.28-6.63c-1.42-0.9-2.81-1.85-4.18-2.86
		c-1.85-1.37-3.63-2.9-5.36-4.49c-2.11-1.94-4.14-4.01-6.04-6.3c-13.38-16.17-16.18-35.39-16.18-48.66V85.89
		c0-13.09,3.99-25.27,10.83-35.38c0.11-0.16,0.23-0.31,0.34-0.47c0.78-1.13,1.6-2.23,2.45-3.31c6.22-7.87,14.25-14.23,23.48-18.45
		c7.99-3.65,16.87-5.71,26.22-5.71c0.36,0,0.71,0.02,1.07,0.03c2.3,0.04,4.57,0.21,6.79,0.5c6.66,0.87,12.9,2.83,18.58,5.74h0
		c3.09,1.58,6.01,3.44,8.75,5.55c2.51,1.94,4.86,4.07,7.03,6.41c5.51,5.93,9.85,13.11,12.74,21.18c2.62,7.31,4.06,15.36,4.06,23.91
		c0,0.03,0.01,0.07,0.01,0.1c0,0,0,0,0,0c0,0.35,0.07,0.69,0.1,1.03c0,0.01,0,0.03,0,0.04c0.04,0.33,0.05,0.67,0.12,0.99
		c0,0,0,0,0,0.01c0.06,0.28,0.17,0.54,0.25,0.82c0,0,0,0.01,0,0.01c0.11,0.37,0.21,0.74,0.36,1.09c0,0,0,0.01,0.01,0.01
		c0.07,0.16,0.17,0.29,0.24,0.44c0.01,0.01,0.01,0.02,0.02,0.03c0.22,0.44,0.44,0.87,0.72,1.26c0,0,0.01,0.01,0.01,0.01c0,0,0,0,0,0
		c0,0.01,0.01,0.01,0.02,0.02c0.02,0.03,0.05,0.05,0.07,0.08c0.15,0.2,0.33,0.37,0.49,0.56c0.23,0.27,0.45,0.56,0.7,0.81
		c0.01,0.01,0.02,0.02,0.03,0.03c1.41,1.35,3.19,2.31,5.2,2.67c0.02,0,0.04,0,0.06,0.01c0.58,0.1,1.17,0.18,1.79,0.18
		c0.02,0,0.04-0.01,0.07-0.01c0.01,0,0.03,0,0.04,0c0.51-0.01,1-0.07,1.49-0.15c4.88-0.77,8.62-4.96,8.62-10.05
		c0-3.54-0.21-7.01-0.58-10.42c-0.66-6.12-1.9-12-3.66-17.59c-2.12-6.73-5-13.02-8.55-18.78c-4.29-6.96-9.54-13.15-15.61-18.37
		c0,0,0,0,0,0c-0.52-0.45-1.07-0.88-1.6-1.31c-0.96-0.78-1.94-1.54-2.94-2.27c-0.7-0.51-1.39-1.02-2.11-1.51
		c-5.72-3.92-12.01-7.06-18.74-9.33c0,0,0,0,0,0c-7.99-2.69-16.61-4.16-25.68-4.16c-0.8,0-1.59,0.04-2.38,0.06
		C59.22,2.83,39.2,12.06,24.56,26.7c-1.59,1.59-3.1,3.26-4.56,4.97c-0.59,0.69-1.17,1.4-1.74,2.11C6.84,48.1,0,66.21,0,85.89v60.28
		c0,23.84,7.22,45.17,20.87,61.68C44.42,236.33,79.94,242.31,105.6,242.31z"/>
</g>
</svg>
